<?xml version="1.0" encoding="utf-8"?>
<!-- Generator: Adobe Illustrator 18.1.1, SVG Export Plug-In . SVG Version: 6.00 Build 0)  -->
<svg version="1.1" id="Layer_1" xmlns="http://www.w3.org/2000/svg" xmlns:xlink="http://www.w3.org/1999/xlink" x="0px" y="0px"
	 viewBox="0 0 276 137" enable-background="new 0 0 276 137" xml:space="preserve">
<g>
	<defs>
		<path id="SVGID_1233_" d="M83.4,28.6h-1.5v1.5v81v1.5h1.5h105h1.5v-1.5v-81v-1.5h-1.5H83.4z M83.4,31.6h105l-1.5-1.5v81l1.5-1.5
			h-105l1.5,1.5v-81L83.4,31.6z M61.9,8.6h148v124h-148V8.6z"/>
	</defs>
	<clipPath id="SVGID_2_">
		<use xlink:href="#SVGID_1233_"  overflow="visible"/>
	</clipPath>
	<g clip-path="url(#SVGID_2_)">
		<defs>
			<rect id="SVGID_1235_" x="83.4" y="30.1" width="105" height="81"/>
		</defs>
		<clipPath id="SVGID_4_">
			<use xlink:href="#SVGID_1235_"  overflow="visible"/>
		</clipPath>
		<g clip-path="url(#SVGID_4_)">
			<defs>
				<rect id="SVGID_1237_" x="-797.6" y="-468.9" width="1121" height="1030"/>
			</defs>
			<clipPath id="SVGID_6_">
				<use xlink:href="#SVGID_1237_"  overflow="visible"/>
			</clipPath>
			<g clip-path="url(#SVGID_6_)">
				<rect x="83.4" y="30.1" fill-rule="evenodd" clip-rule="evenodd" fill="#FFFFFF" width="105" height="81"/>
			</g>
		</g>
	</g>
</g>
<g>
	<defs>
		<rect id="SVGID_1239_" x="83.4" y="30.1" width="105" height="81"/>
	</defs>
	<clipPath id="SVGID_8_">
		<use xlink:href="#SVGID_1239_"  overflow="visible"/>
	</clipPath>
	<g clip-path="url(#SVGID_8_)">
		<defs>
			<rect id="SVGID_1241_" x="-797.6" y="-468.9" width="1121" height="1030"/>
		</defs>
		<clipPath id="SVGID_10_">
			<use xlink:href="#SVGID_1241_"  overflow="visible"/>
		</clipPath>
		<g clip-path="url(#SVGID_10_)">
			<path fill="#0F1F2D" d="M191.4,114.1h-111v-87h111V114.1z M86.4,108.1h99v-75h-99V108.1z"/>
		</g>
	</g>
</g>
<g>
	<defs>
		<path id="SVGID_1243_" d="M77.4,45.6h-2.2l0.9-2.1l9.1-22l0.4-0.9h1h98.9h1l0.4,0.9l9.1,22l0.9,2.1h-2.2H77.4z M77.4,42.6h117
			l-1.4,2.1l-9.1-22l1.4,0.9H86.5l1.4-0.9l-9.1,22L77.4,42.6z M55.1,65.6h161.5v-65H55.1V65.6z"/>
	</defs>
	<clipPath id="SVGID_12_">
		<use xlink:href="#SVGID_1243_"  overflow="visible"/>
	</clipPath>
	<g clip-path="url(#SVGID_12_)">
		<defs>
			<polygon id="SVGID_1245_" points="77.4,44.1 194.4,44.1 185.3,22.1 86.5,22.1 			"/>
		</defs>
		<clipPath id="SVGID_14_">
			<use xlink:href="#SVGID_1245_"  overflow="visible"/>
		</clipPath>
		<g clip-path="url(#SVGID_14_)">
			<defs>
				<rect id="SVGID_1247_" x="-797.6" y="-468.9" width="1121" height="1030"/>
			</defs>
			<clipPath id="SVGID_16_">
				<use xlink:href="#SVGID_1247_"  overflow="visible"/>
			</clipPath>
			<g clip-path="url(#SVGID_16_)">
				<polygon fill-rule="evenodd" clip-rule="evenodd" fill="#FFFFFF" points="77.4,44.1 194.4,44.1 185.3,22.1 86.5,22.1 				"/>
			</g>
		</g>
	</g>
</g>
<g>
	<defs>
		<polygon id="SVGID_1249_" points="77.4,44.1 194.4,44.1 185.3,22.1 86.5,22.1 		"/>
	</defs>
	<clipPath id="SVGID_18_">
		<use xlink:href="#SVGID_1249_"  overflow="visible"/>
	</clipPath>
	<g clip-path="url(#SVGID_18_)">
		<defs>
			<rect id="SVGID_1251_" x="-797.6" y="-468.9" width="1121" height="1030"/>
		</defs>
		<clipPath id="SVGID_20_">
			<use xlink:href="#SVGID_1251_"  overflow="visible"/>
		</clipPath>
		<g clip-path="url(#SVGID_20_)">
			<path fill="#0F1F2D" d="M198.9,47.1h-126l11.5-28h102.9L198.9,47.1z M81.9,41.1h108l-6.6-16H88.5L81.9,41.1z"/>
		</g>
	</g>
</g>
<g>
	<defs>
		<path id="SVGID_1253_" d="M162.4,12.6h-1.5v1.5v16v1.5h1.5h12h1.5v-1.5v-16v-1.5h-1.5H162.4z M162.4,15.6h12l-1.5-1.5v16l1.5-1.5
			h-12l1.5,1.5v-16L162.4,15.6z M140.9-7.4h55v59h-55V-7.4z"/>
	</defs>
	<clipPath id="SVGID_22_">
		<use xlink:href="#SVGID_1253_"  overflow="visible"/>
	</clipPath>
	<g clip-path="url(#SVGID_22_)">
		<defs>
			<rect id="SVGID_1255_" x="162.4" y="14.1" width="12" height="16"/>
		</defs>
		<clipPath id="SVGID_24_">
			<use xlink:href="#SVGID_1255_"  overflow="visible"/>
		</clipPath>
		<g clip-path="url(#SVGID_24_)">
			<defs>
				<rect id="SVGID_1257_" x="-797.6" y="-468.9" width="1121" height="1030"/>
			</defs>
			<clipPath id="SVGID_26_">
				<use xlink:href="#SVGID_1257_"  overflow="visible"/>
			</clipPath>
			<g clip-path="url(#SVGID_26_)">
				<rect x="162.4" y="14.1" fill-rule="evenodd" clip-rule="evenodd" fill="#FFFFFF" width="12" height="16"/>
			</g>
		</g>
	</g>
</g>
<g>
	<defs>
		<rect id="SVGID_1259_" x="162.4" y="14.1" width="12" height="16"/>
	</defs>
	<clipPath id="SVGID_28_">
		<use xlink:href="#SVGID_1259_"  overflow="visible"/>
	</clipPath>
	<g clip-path="url(#SVGID_28_)">
		<defs>
			<rect id="SVGID_1261_" x="-797.6" y="-468.9" width="1121" height="1030"/>
		</defs>
		<clipPath id="SVGID_30_">
			<use xlink:href="#SVGID_1261_"  overflow="visible"/>
		</clipPath>
		<g clip-path="url(#SVGID_30_)">
			<path fill="#0F1F2D" d="M177.4,33.1h-18v-22h18V33.1z M165.4,27.1h6v-10h-6V27.1z"/>
		</g>
	</g>
</g>
<g>
	<defs>
		<path id="SVGID_1263_" d="M96.4,78.6h-1.5v1.5v31v1.5h1.5h21h1.5v-1.5v-31v-1.5h-1.5H96.4z M96.4,81.6h21l-1.5-1.5v31l1.5-1.5h-21
			l1.5,1.5v-31L96.4,81.6z M74.9,58.6h64v74h-64V58.6z"/>
	</defs>
	<clipPath id="SVGID_32_">
		<use xlink:href="#SVGID_1263_"  overflow="visible"/>
	</clipPath>
	<g clip-path="url(#SVGID_32_)">
		<defs>
			<rect id="SVGID_1265_" x="96.4" y="80.1" width="21" height="31"/>
		</defs>
		<clipPath id="SVGID_34_">
			<use xlink:href="#SVGID_1265_"  overflow="visible"/>
		</clipPath>
		<g clip-path="url(#SVGID_34_)">
			<defs>
				<rect id="SVGID_1267_" x="-797.6" y="-468.9" width="1121" height="1030"/>
			</defs>
			<clipPath id="SVGID_36_">
				<use xlink:href="#SVGID_1267_"  overflow="visible"/>
			</clipPath>
			<g clip-path="url(#SVGID_36_)">
				<rect x="96.4" y="80.1" fill-rule="evenodd" clip-rule="evenodd" fill="#FFFFFF" width="21" height="31"/>
			</g>
		</g>
	</g>
</g>
<g>
	<defs>
		<rect id="SVGID_1269_" x="96.4" y="80.1" width="21" height="31"/>
	</defs>
	<clipPath id="SVGID_38_">
		<use xlink:href="#SVGID_1269_"  overflow="visible"/>
	</clipPath>
	<g clip-path="url(#SVGID_38_)">
		<defs>
			<rect id="SVGID_1271_" x="-797.6" y="-468.9" width="1121" height="1030"/>
		</defs>
		<clipPath id="SVGID_40_">
			<use xlink:href="#SVGID_1271_"  overflow="visible"/>
		</clipPath>
		<g clip-path="url(#SVGID_40_)">
			<path fill="#0F1F2D" d="M120.4,114.1h-27v-37h27V114.1z M99.4,108.1h15v-25h-15V108.1z"/>
		</g>
	</g>
</g>
<g>
	<defs>
		<path id="SVGID_1273_" d="M97.4,50.6h-1.5v1.5v19v1.5h1.5h19h1.5v-1.5v-19v-1.5h-1.5H97.4z M97.4,53.6h19l-1.5-1.5v19l1.5-1.5h-19
			l1.5,1.5v-19L97.4,53.6z M75.9,30.6h62v62h-62V30.6z"/>
	</defs>
	<clipPath id="SVGID_42_">
		<use xlink:href="#SVGID_1273_"  overflow="visible"/>
	</clipPath>
	<g clip-path="url(#SVGID_42_)">
		<defs>
			<rect id="SVGID_1275_" x="97.4" y="52.1" width="19" height="19"/>
		</defs>
		<clipPath id="SVGID_44_">
			<use xlink:href="#SVGID_1275_"  overflow="visible"/>
		</clipPath>
		<g clip-path="url(#SVGID_44_)">
			<defs>
				<rect id="SVGID_1277_" x="-797.6" y="-468.9" width="1121" height="1030"/>
			</defs>
			<clipPath id="SVGID_46_">
				<use xlink:href="#SVGID_1277_"  overflow="visible"/>
			</clipPath>
			<g clip-path="url(#SVGID_46_)">
				<rect x="97.4" y="52.1" fill-rule="evenodd" clip-rule="evenodd" fill="#FFFFFF" width="19" height="19"/>
			</g>
		</g>
	</g>
</g>
<g>
	<defs>
		<rect id="SVGID_1279_" x="97.4" y="52.1" width="19" height="19"/>
	</defs>
	<clipPath id="SVGID_48_">
		<use xlink:href="#SVGID_1279_"  overflow="visible"/>
	</clipPath>
	<g clip-path="url(#SVGID_48_)">
		<defs>
			<rect id="SVGID_1281_" x="-797.6" y="-468.9" width="1121" height="1030"/>
		</defs>
		<clipPath id="SVGID_50_">
			<use xlink:href="#SVGID_1281_"  overflow="visible"/>
		</clipPath>
		<g clip-path="url(#SVGID_50_)">
			<path fill="#0F1F2D" d="M119.4,74.1h-25v-25h25V74.1z M100.4,68.1h13v-13h-13V68.1z"/>
		</g>
	</g>
</g>
<g>
	<defs>
		<path id="SVGID_1283_" d="M102.4,55.6h-1.5v1.5v9v1.5h1.5h9h1.5v-1.5v-9v-1.5h-1.5H102.4z M102.4,58.6h9l-1.5-1.5v9l1.5-1.5h-9
			l1.5,1.5v-9L102.4,58.6z M80.9,35.6h52v52h-52V35.6z"/>
	</defs>
	<clipPath id="SVGID_52_">
		<use xlink:href="#SVGID_1283_"  overflow="visible"/>
	</clipPath>
	<g clip-path="url(#SVGID_52_)">
		<defs>
			<rect id="SVGID_1285_" x="102.4" y="57.1" width="9" height="9"/>
		</defs>
		<clipPath id="SVGID_54_">
			<use xlink:href="#SVGID_1285_"  overflow="visible"/>
		</clipPath>
		<g clip-path="url(#SVGID_54_)">
			<defs>
				<rect id="SVGID_1287_" x="-797.6" y="-468.9" width="1121" height="1030"/>
			</defs>
			<clipPath id="SVGID_56_">
				<use xlink:href="#SVGID_1287_"  overflow="visible"/>
			</clipPath>
			<g clip-path="url(#SVGID_56_)">
				<rect x="102.4" y="57.1" fill-rule="evenodd" clip-rule="evenodd" fill="#FFFFFF" width="9" height="9"/>
			</g>
		</g>
	</g>
</g>
<g>
	<defs>
		<rect id="SVGID_1289_" x="102.4" y="57.1" width="9" height="9"/>
	</defs>
	<clipPath id="SVGID_58_">
		<use xlink:href="#SVGID_1289_"  overflow="visible"/>
	</clipPath>
	<g clip-path="url(#SVGID_58_)">
		<defs>
			<rect id="SVGID_1291_" x="-797.6" y="-468.9" width="1121" height="1030"/>
		</defs>
		<clipPath id="SVGID_60_">
			<use xlink:href="#SVGID_1291_"  overflow="visible"/>
		</clipPath>
		<g clip-path="url(#SVGID_60_)">
			<path fill="#0F1F2D" d="M114.4,69.1h-15v-15h15V69.1z M105.4,63.1h3v-3h-3V63.1z"/>
		</g>
	</g>
</g>
<g>
	<defs>
		<path id="SVGID_1293_" d="M127.4,50.6h-1.5v1.5v19v1.5h1.5h19h1.5v-1.5v-19v-1.5h-1.5H127.4z M127.4,53.6h19l-1.5-1.5v19l1.5-1.5
			h-19l1.5,1.5v-19L127.4,53.6z M105.9,30.6h62v62h-62V30.6z"/>
	</defs>
	<clipPath id="SVGID_62_">
		<use xlink:href="#SVGID_1293_"  overflow="visible"/>
	</clipPath>
	<g clip-path="url(#SVGID_62_)">
		<defs>
			<rect id="SVGID_1295_" x="127.4" y="52.1" width="19" height="19"/>
		</defs>
		<clipPath id="SVGID_64_">
			<use xlink:href="#SVGID_1295_"  overflow="visible"/>
		</clipPath>
		<g clip-path="url(#SVGID_64_)">
			<defs>
				<rect id="SVGID_1297_" x="-797.6" y="-468.9" width="1121" height="1030"/>
			</defs>
			<clipPath id="SVGID_66_">
				<use xlink:href="#SVGID_1297_"  overflow="visible"/>
			</clipPath>
			<g clip-path="url(#SVGID_66_)">
				<rect x="127.4" y="52.1" fill-rule="evenodd" clip-rule="evenodd" fill="#FFFFFF" width="19" height="19"/>
			</g>
		</g>
	</g>
</g>
<g>
	<defs>
		<rect id="SVGID_1299_" x="127.4" y="52.1" width="19" height="19"/>
	</defs>
	<clipPath id="SVGID_68_">
		<use xlink:href="#SVGID_1299_"  overflow="visible"/>
	</clipPath>
	<g clip-path="url(#SVGID_68_)">
		<defs>
			<rect id="SVGID_1301_" x="-797.6" y="-468.9" width="1121" height="1030"/>
		</defs>
		<clipPath id="SVGID_70_">
			<use xlink:href="#SVGID_1301_"  overflow="visible"/>
		</clipPath>
		<g clip-path="url(#SVGID_70_)">
			<path fill="#0F1F2D" d="M149.4,74.1h-25v-25h25V74.1z M130.4,68.1h13v-13h-13V68.1z"/>
		</g>
	</g>
</g>
<g>
	<defs>
		<path id="SVGID_1303_" d="M156.4,50.6h-1.5v1.5v19v1.5h1.5h19h1.5v-1.5v-19v-1.5h-1.5H156.4z M156.4,53.6h19l-1.5-1.5v19l1.5-1.5
			h-19l1.5,1.5v-19L156.4,53.6z M134.9,30.6h62v62h-62V30.6z"/>
	</defs>
	<clipPath id="SVGID_72_">
		<use xlink:href="#SVGID_1303_"  overflow="visible"/>
	</clipPath>
	<g clip-path="url(#SVGID_72_)">
		<defs>
			<rect id="SVGID_1305_" x="156.4" y="52.1" width="19" height="19"/>
		</defs>
		<clipPath id="SVGID_74_">
			<use xlink:href="#SVGID_1305_"  overflow="visible"/>
		</clipPath>
		<g clip-path="url(#SVGID_74_)">
			<defs>
				<rect id="SVGID_1307_" x="-797.6" y="-468.9" width="1121" height="1030"/>
			</defs>
			<clipPath id="SVGID_76_">
				<use xlink:href="#SVGID_1307_"  overflow="visible"/>
			</clipPath>
			<g clip-path="url(#SVGID_76_)">
				<rect x="156.4" y="52.1" fill-rule="evenodd" clip-rule="evenodd" fill="#FFFFFF" width="19" height="19"/>
			</g>
		</g>
	</g>
</g>
<g>
	<defs>
		<rect id="SVGID_1309_" x="156.4" y="52.1" width="19" height="19"/>
	</defs>
	<clipPath id="SVGID_78_">
		<use xlink:href="#SVGID_1309_"  overflow="visible"/>
	</clipPath>
	<g clip-path="url(#SVGID_78_)">
		<defs>
			<rect id="SVGID_1311_" x="-797.6" y="-468.9" width="1121" height="1030"/>
		</defs>
		<clipPath id="SVGID_80_">
			<use xlink:href="#SVGID_1311_"  overflow="visible"/>
		</clipPath>
		<g clip-path="url(#SVGID_80_)">
			<path fill="#0F1F2D" d="M178.4,74.1h-25v-25h25V74.1z M159.4,68.1h13v-13h-13V68.1z"/>
		</g>
	</g>
</g>
<g>
	<defs>
		<path id="SVGID_1313_" d="M127.4,78.6h-1.5v1.5v19v1.5h1.5h19h1.5v-1.5v-19v-1.5h-1.5H127.4z M127.4,81.6h19l-1.5-1.5v19l1.5-1.5
			h-19l1.5,1.5v-19L127.4,81.6z M105.9,58.6h62v62h-62V58.6z"/>
	</defs>
	<clipPath id="SVGID_82_">
		<use xlink:href="#SVGID_1313_"  overflow="visible"/>
	</clipPath>
	<g clip-path="url(#SVGID_82_)">
		<defs>
			<rect id="SVGID_1315_" x="127.4" y="80.1" width="19" height="19"/>
		</defs>
		<clipPath id="SVGID_84_">
			<use xlink:href="#SVGID_1315_"  overflow="visible"/>
		</clipPath>
		<g clip-path="url(#SVGID_84_)">
			<defs>
				<rect id="SVGID_1317_" x="-797.6" y="-468.9" width="1121" height="1030"/>
			</defs>
			<clipPath id="SVGID_86_">
				<use xlink:href="#SVGID_1317_"  overflow="visible"/>
			</clipPath>
			<g clip-path="url(#SVGID_86_)">
				<rect x="127.4" y="80.1" fill-rule="evenodd" clip-rule="evenodd" fill="#FFFFFF" width="19" height="19"/>
			</g>
		</g>
	</g>
</g>
<g>
	<defs>
		<rect id="SVGID_1319_" x="127.4" y="80.1" width="19" height="19"/>
	</defs>
	<clipPath id="SVGID_88_">
		<use xlink:href="#SVGID_1319_"  overflow="visible"/>
	</clipPath>
	<g clip-path="url(#SVGID_88_)">
		<defs>
			<rect id="SVGID_1321_" x="-797.6" y="-468.9" width="1121" height="1030"/>
		</defs>
		<clipPath id="SVGID_90_">
			<use xlink:href="#SVGID_1321_"  overflow="visible"/>
		</clipPath>
		<g clip-path="url(#SVGID_90_)">
			<path fill="#0F1F2D" d="M149.4,102.1h-25v-25h25V102.1z M130.4,96.1h13v-13h-13V96.1z"/>
		</g>
	</g>
</g>
<g>
	<defs>
		<path id="SVGID_1323_" d="M156.4,78.6h-1.5v1.5v19v1.5h1.5h19h1.5v-1.5v-19v-1.5h-1.5H156.4z M156.4,81.6h19l-1.5-1.5v19l1.5-1.5
			h-19l1.5,1.5v-19L156.4,81.6z M134.9,58.6h62v62h-62V58.6z"/>
	</defs>
	<clipPath id="SVGID_92_">
		<use xlink:href="#SVGID_1323_"  overflow="visible"/>
	</clipPath>
	<g clip-path="url(#SVGID_92_)">
		<defs>
			<rect id="SVGID_1325_" x="156.4" y="80.1" width="19" height="19"/>
		</defs>
		<clipPath id="SVGID_94_">
			<use xlink:href="#SVGID_1325_"  overflow="visible"/>
		</clipPath>
		<g clip-path="url(#SVGID_94_)">
			<defs>
				<rect id="SVGID_1327_" x="-797.6" y="-468.9" width="1121" height="1030"/>
			</defs>
			<clipPath id="SVGID_96_">
				<use xlink:href="#SVGID_1327_"  overflow="visible"/>
			</clipPath>
			<g clip-path="url(#SVGID_96_)">
				<rect x="156.4" y="80.1" fill-rule="evenodd" clip-rule="evenodd" fill="#FFFFFF" width="19" height="19"/>
			</g>
		</g>
	</g>
</g>
<g>
	<defs>
		<rect id="SVGID_1329_" x="156.4" y="80.1" width="19" height="19"/>
	</defs>
	<clipPath id="SVGID_98_">
		<use xlink:href="#SVGID_1329_"  overflow="visible"/>
	</clipPath>
	<g clip-path="url(#SVGID_98_)">
		<defs>
			<rect id="SVGID_1331_" x="-797.6" y="-468.9" width="1121" height="1030"/>
		</defs>
		<clipPath id="SVGID_100_">
			<use xlink:href="#SVGID_1331_"  overflow="visible"/>
		</clipPath>
		<g clip-path="url(#SVGID_100_)">
			<path fill="#0F1F2D" d="M178.4,102.1h-25v-25h25V102.1z M159.4,96.1h13v-13h-13V96.1z"/>
		</g>
	</g>
</g>
<g>
	<defs>
		<path id="SVGID_1333_" d="M132.4,55.6h-1.5v1.5v9v1.5h1.5h9h1.5v-1.5v-9v-1.5h-1.5H132.4z M132.4,58.6h9l-1.5-1.5v9l1.5-1.5h-9
			l1.5,1.5v-9L132.4,58.6z M110.9,35.6h52v52h-52V35.6z"/>
	</defs>
	<clipPath id="SVGID_102_">
		<use xlink:href="#SVGID_1333_"  overflow="visible"/>
	</clipPath>
	<g clip-path="url(#SVGID_102_)">
		<defs>
			<rect id="SVGID_1335_" x="132.4" y="57.1" width="9" height="9"/>
		</defs>
		<clipPath id="SVGID_104_">
			<use xlink:href="#SVGID_1335_"  overflow="visible"/>
		</clipPath>
		<g clip-path="url(#SVGID_104_)">
			<defs>
				<rect id="SVGID_1337_" x="-797.6" y="-468.9" width="1121" height="1030"/>
			</defs>
			<clipPath id="SVGID_106_">
				<use xlink:href="#SVGID_1337_"  overflow="visible"/>
			</clipPath>
			<g clip-path="url(#SVGID_106_)">
				<rect x="132.4" y="57.1" fill-rule="evenodd" clip-rule="evenodd" fill="#FFFFFF" width="9" height="9"/>
			</g>
		</g>
	</g>
</g>
<g>
	<defs>
		<rect id="SVGID_1339_" x="132.4" y="57.1" width="9" height="9"/>
	</defs>
	<clipPath id="SVGID_108_">
		<use xlink:href="#SVGID_1339_"  overflow="visible"/>
	</clipPath>
	<g clip-path="url(#SVGID_108_)">
		<defs>
			<rect id="SVGID_1341_" x="-797.6" y="-468.9" width="1121" height="1030"/>
		</defs>
		<clipPath id="SVGID_110_">
			<use xlink:href="#SVGID_1341_"  overflow="visible"/>
		</clipPath>
		<g clip-path="url(#SVGID_110_)">
			<path fill="#0F1F2D" d="M144.4,69.1h-15v-15h15V69.1z M135.4,63.1h3v-3h-3V63.1z"/>
		</g>
	</g>
</g>
<g>
	<defs>
		<path id="SVGID_1343_" d="M161.4,55.6h-1.5v1.5v9v1.5h1.5h9h1.5v-1.5v-9v-1.5h-1.5H161.4z M161.4,58.6h9l-1.5-1.5v9l1.5-1.5h-9
			l1.5,1.5v-9L161.4,58.6z M139.9,35.6h52v52h-52V35.6z"/>
	</defs>
	<clipPath id="SVGID_112_">
		<use xlink:href="#SVGID_1343_"  overflow="visible"/>
	</clipPath>
	<g clip-path="url(#SVGID_112_)">
		<defs>
			<rect id="SVGID_1345_" x="161.4" y="57.1" width="9" height="9"/>
		</defs>
		<clipPath id="SVGID_114_">
			<use xlink:href="#SVGID_1345_"  overflow="visible"/>
		</clipPath>
		<g clip-path="url(#SVGID_114_)">
			<defs>
				<rect id="SVGID_1347_" x="-797.6" y="-468.9" width="1121" height="1030"/>
			</defs>
			<clipPath id="SVGID_116_">
				<use xlink:href="#SVGID_1347_"  overflow="visible"/>
			</clipPath>
			<g clip-path="url(#SVGID_116_)">
				<rect x="161.4" y="57.1" fill-rule="evenodd" clip-rule="evenodd" fill="#FFFFFF" width="9" height="9"/>
			</g>
		</g>
	</g>
</g>
<g>
	<defs>
		<rect id="SVGID_1349_" x="161.4" y="57.1" width="9" height="9"/>
	</defs>
	<clipPath id="SVGID_118_">
		<use xlink:href="#SVGID_1349_"  overflow="visible"/>
	</clipPath>
	<g clip-path="url(#SVGID_118_)">
		<defs>
			<rect id="SVGID_1351_" x="-797.6" y="-468.9" width="1121" height="1030"/>
		</defs>
		<clipPath id="SVGID_120_">
			<use xlink:href="#SVGID_1351_"  overflow="visible"/>
		</clipPath>
		<g clip-path="url(#SVGID_120_)">
			<path fill="#0F1F2D" d="M173.4,69.1h-15v-15h15V69.1z M164.4,63.1h3v-3h-3V63.1z"/>
		</g>
	</g>
</g>
<g>
	<defs>
		<path id="SVGID_1353_" d="M132.4,83.6h-1.5v1.5v9v1.5h1.5h9h1.5v-1.5v-9v-1.5h-1.5H132.4z M132.4,86.6h9l-1.5-1.5v9l1.5-1.5h-9
			l1.5,1.5v-9L132.4,86.6z M110.9,63.6h52v52h-52V63.6z"/>
	</defs>
	<clipPath id="SVGID_122_">
		<use xlink:href="#SVGID_1353_"  overflow="visible"/>
	</clipPath>
	<g clip-path="url(#SVGID_122_)">
		<defs>
			<rect id="SVGID_1355_" x="132.4" y="85.1" width="9" height="9"/>
		</defs>
		<clipPath id="SVGID_124_">
			<use xlink:href="#SVGID_1355_"  overflow="visible"/>
		</clipPath>
		<g clip-path="url(#SVGID_124_)">
			<defs>
				<rect id="SVGID_1357_" x="-797.6" y="-468.9" width="1121" height="1030"/>
			</defs>
			<clipPath id="SVGID_126_">
				<use xlink:href="#SVGID_1357_"  overflow="visible"/>
			</clipPath>
			<g clip-path="url(#SVGID_126_)">
				<rect x="132.4" y="85.1" fill-rule="evenodd" clip-rule="evenodd" fill="#FFFFFF" width="9" height="9"/>
			</g>
		</g>
	</g>
</g>
<g>
	<defs>
		<rect id="SVGID_1359_" x="132.4" y="85.1" width="9" height="9"/>
	</defs>
	<clipPath id="SVGID_128_">
		<use xlink:href="#SVGID_1359_"  overflow="visible"/>
	</clipPath>
	<g clip-path="url(#SVGID_128_)">
		<defs>
			<rect id="SVGID_1361_" x="-797.6" y="-468.9" width="1121" height="1030"/>
		</defs>
		<clipPath id="SVGID_130_">
			<use xlink:href="#SVGID_1361_"  overflow="visible"/>
		</clipPath>
		<g clip-path="url(#SVGID_130_)">
			<path fill="#0F1F2D" d="M144.4,97.1h-15v-15h15V97.1z M135.4,91.1h3v-3h-3V91.1z"/>
		</g>
	</g>
</g>
<g>
	<defs>
		<path id="SVGID_1363_" d="M161.4,83.6h-1.5v1.5v9v1.5h1.5h9h1.5v-1.5v-9v-1.5h-1.5H161.4z M161.4,86.6h9l-1.5-1.5v9l1.5-1.5h-9
			l1.5,1.5v-9L161.4,86.6z M139.9,63.6h52v52h-52V63.6z"/>
	</defs>
	<clipPath id="SVGID_132_">
		<use xlink:href="#SVGID_1363_"  overflow="visible"/>
	</clipPath>
	<g clip-path="url(#SVGID_132_)">
		<defs>
			<rect id="SVGID_1365_" x="161.4" y="85.1" width="9" height="9"/>
		</defs>
		<clipPath id="SVGID_134_">
			<use xlink:href="#SVGID_1365_"  overflow="visible"/>
		</clipPath>
		<g clip-path="url(#SVGID_134_)">
			<defs>
				<rect id="SVGID_1367_" x="-797.6" y="-468.9" width="1121" height="1030"/>
			</defs>
			<clipPath id="SVGID_136_">
				<use xlink:href="#SVGID_1367_"  overflow="visible"/>
			</clipPath>
			<g clip-path="url(#SVGID_136_)">
				<rect x="161.4" y="85.1" fill-rule="evenodd" clip-rule="evenodd" fill="#FFFFFF" width="9" height="9"/>
			</g>
		</g>
	</g>
</g>
<g>
	<defs>
		<rect id="SVGID_1369_" x="161.4" y="85.1" width="9" height="9"/>
	</defs>
	<clipPath id="SVGID_138_">
		<use xlink:href="#SVGID_1369_"  overflow="visible"/>
	</clipPath>
	<g clip-path="url(#SVGID_138_)">
		<defs>
			<rect id="SVGID_1371_" x="-797.6" y="-468.9" width="1121" height="1030"/>
		</defs>
		<clipPath id="SVGID_140_">
			<use xlink:href="#SVGID_1371_"  overflow="visible"/>
		</clipPath>
		<g clip-path="url(#SVGID_140_)">
			<path fill="#0F1F2D" d="M173.4,97.1h-15v-15h15V97.1z M164.4,91.1h3v-3h-3V91.1z"/>
		</g>
	</g>
</g>
<g>
	<circle fill="#FFFFFF" cx="180" cy="101.2" r="18.5"/>
	<path fill="#0F1F2D" d="M180,121.2c-5.3,0-10.4-2.1-14.1-5.9c-3.8-3.8-5.9-8.8-5.9-14.1c0-5.3,2.1-10.4,5.9-14.1
		c3.8-3.8,8.8-5.9,14.1-5.9c5.3,0,10.4,2.1,14.1,5.9c3.8,3.8,5.9,8.8,5.9,14.1c0,5.3-2.1,10.4-5.9,14.1
		C190.3,119.1,185.3,121.2,180,121.2z M180,84.2c-4.5,0-8.8,1.8-12,5c-3.2,3.2-5,7.5-5,12c0,4.5,1.8,8.8,5,12c3.2,3.2,7.5,5,12,5
		c4.5,0,8.8-1.8,12-5s5-7.5,5-12c0-4.5-1.8-8.8-5-12S184.5,84.2,180,84.2z"/>
</g>
<g>
	<path d="M181.4,106.5v3.2h-2.8v-3.3c-1.9-0.3-3.7-1.1-5.1-2.2l1.5-2.9c1.5,1.3,3.8,2.2,5.4,2.2c1.2,0,1.9-0.4,1.9-1.3
		c0-2.6-7.8-1.1-7.8-6.3c0-2.3,1.6-3.8,4.2-4.3v-3.1h2.8v3c1.8,0.2,3.5,0.8,4.8,1.6l-1.4,2.9c-1.6-0.9-3.5-1.5-4.7-1.5
		c-1,0-1.6,0.4-1.6,1.1c0,2.6,7.8,1.1,7.8,6.5C186.3,104.7,184.2,106.2,181.4,106.5z"/>
</g>
<g>
	<defs>
		<circle id="SVGID_1435_" cx="-195.7" cy="53.5" r="15.7"/>
	</defs>
	<defs>
		<path id="SVGID_1436_" d="M-195.7,70.8c-9.5,0-17.2-7.7-17.2-17.2c0-9.5,7.7-17.2,17.2-17.2s17.2,7.7,17.2,17.2
			C-178.4,63.1-186.2,70.8-195.7,70.8z M-195.7,39.3c-7.9,0-14.2,6.4-14.2,14.2c0,7.9,6.4,14.2,14.2,14.2s14.2-6.4,14.2-14.2
			C-181.4,45.7-187.8,39.3-195.7,39.3z"/>
	</defs>
	<use xlink:href="#SVGID_1435_"  overflow="visible" fill-rule="evenodd" clip-rule="evenodd" fill="#FFFFFF"/>
	<use xlink:href="#SVGID_1436_"  overflow="visible" fill="#0F1F2D"/>
	<clipPath id="SVGID_142_">
		<use xlink:href="#SVGID_1435_"  overflow="visible"/>
	</clipPath>
	<clipPath id="SVGID_144_" clip-path="url(#SVGID_142_)">
		<use xlink:href="#SVGID_1436_"  overflow="visible"/>
	</clipPath>
	<g clip-path="url(#SVGID_144_)">
		<defs>
			<rect id="SVGID_1439_" x="-258.8" y="-212.7" width="405.6" height="372.7"/>
		</defs>
		<defs>
			<path id="SVGID_1440_" d="M148.3,161.4h-408.6v-375.7h408.6V161.4z M-257.3,158.4h402.6v-369.7h-402.6V158.4z"/>
		</defs>
		<use xlink:href="#SVGID_1439_"  overflow="visible" fill="#FFFFFF"/>
		<use xlink:href="#SVGID_1440_"  overflow="visible" fill="#0F1F2D"/>
		<clipPath id="SVGID_146_">
			<use xlink:href="#SVGID_1439_"  overflow="visible"/>
		</clipPath>
		<clipPath id="SVGID_148_" clip-path="url(#SVGID_146_)">
			<use xlink:href="#SVGID_1440_"  overflow="visible"/>
		</clipPath>
	</g>
</g>
<g>
	<polygon points="179.6,116.1 177.4,112 175.1,108 179.6,108 184,108 181.8,112 	"/>
</g>
<g>
	<defs>
		<path id="SVGID_1443_" d="M683.4-288.4h-1.5v1.5v81v1.5h1.5h105h1.5v-1.5v-81v-1.5h-1.5H683.4z M683.4-285.4h105l-1.5-1.5v81
			l1.5-1.5h-105l1.5,1.5v-81L683.4-285.4z M661.9-308.4h148v124h-148V-308.4z"/>
	</defs>
	<clipPath id="SVGID_150_">
		<use xlink:href="#SVGID_1443_"  overflow="visible"/>
	</clipPath>
	<g clip-path="url(#SVGID_150_)">
		<defs>
			<rect id="SVGID_1445_" x="683.4" y="-286.9" width="105" height="81"/>
		</defs>
		<clipPath id="SVGID_152_">
			<use xlink:href="#SVGID_1445_"  overflow="visible"/>
		</clipPath>
		<g clip-path="url(#SVGID_152_)">
			<defs>
				<rect id="SVGID_1447_" x="-197.6" y="-785.9" width="1121" height="1030"/>
			</defs>
			<clipPath id="SVGID_154_">
				<use xlink:href="#SVGID_1447_"  overflow="visible"/>
			</clipPath>
		</g>
	</g>
</g>
<g>
	<defs>
		<rect id="SVGID_1449_" x="683.4" y="-286.9" width="105" height="81"/>
	</defs>
	<clipPath id="SVGID_156_">
		<use xlink:href="#SVGID_1449_"  overflow="visible"/>
	</clipPath>
	<g clip-path="url(#SVGID_156_)">
		<defs>
			<rect id="SVGID_1451_" x="-197.6" y="-785.9" width="1121" height="1030"/>
		</defs>
		<clipPath id="SVGID_158_">
			<use xlink:href="#SVGID_1451_"  overflow="visible"/>
		</clipPath>
	</g>
</g>
<g>
	<defs>
		<path id="SVGID_1453_" d="M677.4-271.4h-2.2l0.9-2.1l9.1-22l0.4-0.9h1h98.9h1l0.4,0.9l9.1,22l0.9,2.1h-2.2H677.4z M677.4-274.4
			h117l-1.4,2.1l-9.1-22l1.4,0.9h-98.9l1.4-0.9l-9.1,22L677.4-274.4z M655.1-251.4h161.5v-65H655.1V-251.4z"/>
	</defs>
	<clipPath id="SVGID_160_">
		<use xlink:href="#SVGID_1453_"  overflow="visible"/>
	</clipPath>
	<g clip-path="url(#SVGID_160_)">
		<defs>
			<polygon id="SVGID_1455_" points="677.4,-272.9 794.4,-272.9 785.3,-294.9 686.5,-294.9 			"/>
		</defs>
		<clipPath id="SVGID_162_">
			<use xlink:href="#SVGID_1455_"  overflow="visible"/>
		</clipPath>
		<g clip-path="url(#SVGID_162_)">
			<defs>
				<rect id="SVGID_1457_" x="-197.6" y="-785.9" width="1121" height="1030"/>
			</defs>
			<clipPath id="SVGID_164_">
				<use xlink:href="#SVGID_1457_"  overflow="visible"/>
			</clipPath>
		</g>
	</g>
</g>
<g>
	<defs>
		<polygon id="SVGID_1459_" points="677.4,-272.9 794.4,-272.9 785.3,-294.9 686.5,-294.9 		"/>
	</defs>
	<clipPath id="SVGID_166_">
		<use xlink:href="#SVGID_1459_"  overflow="visible"/>
	</clipPath>
	<g clip-path="url(#SVGID_166_)">
		<defs>
			<rect id="SVGID_1461_" x="-197.6" y="-785.9" width="1121" height="1030"/>
		</defs>
		<clipPath id="SVGID_168_">
			<use xlink:href="#SVGID_1461_"  overflow="visible"/>
		</clipPath>
	</g>
</g>
<g>
	<defs>
		<path id="SVGID_1463_" d="M762.4-304.4h-1.5v1.5v16v1.5h1.5h12h1.5v-1.5v-16v-1.5h-1.5H762.4z M762.4-301.4h12l-1.5-1.5v16
			l1.5-1.5h-12l1.5,1.5v-16L762.4-301.4z M740.9-324.4h55v59h-55V-324.4z"/>
	</defs>
	<clipPath id="SVGID_170_">
		<use xlink:href="#SVGID_1463_"  overflow="visible"/>
	</clipPath>
	<g clip-path="url(#SVGID_170_)">
		<defs>
			<rect id="SVGID_1465_" x="762.4" y="-302.9" width="12" height="16"/>
		</defs>
		<clipPath id="SVGID_172_">
			<use xlink:href="#SVGID_1465_"  overflow="visible"/>
		</clipPath>
		<g clip-path="url(#SVGID_172_)">
			<defs>
				<rect id="SVGID_1467_" x="-197.6" y="-785.9" width="1121" height="1030"/>
			</defs>
			<clipPath id="SVGID_174_">
				<use xlink:href="#SVGID_1467_"  overflow="visible"/>
			</clipPath>
		</g>
	</g>
</g>
<g>
	<defs>
		<rect id="SVGID_1469_" x="762.4" y="-302.9" width="12" height="16"/>
	</defs>
	<clipPath id="SVGID_176_">
		<use xlink:href="#SVGID_1469_"  overflow="visible"/>
	</clipPath>
	<g clip-path="url(#SVGID_176_)">
		<defs>
			<rect id="SVGID_1471_" x="-197.6" y="-785.9" width="1121" height="1030"/>
		</defs>
		<clipPath id="SVGID_178_">
			<use xlink:href="#SVGID_1471_"  overflow="visible"/>
		</clipPath>
	</g>
</g>
<g>
	<defs>
		<path id="SVGID_1473_" d="M696.4-238.4h-1.5v1.5v31v1.5h1.5h21h1.5v-1.5v-31v-1.5h-1.5H696.4z M696.4-235.4h21l-1.5-1.5v31
			l1.5-1.5h-21l1.5,1.5v-31L696.4-235.4z M674.9-258.4h64v74h-64V-258.4z"/>
	</defs>
	<clipPath id="SVGID_180_">
		<use xlink:href="#SVGID_1473_"  overflow="visible"/>
	</clipPath>
	<g clip-path="url(#SVGID_180_)">
		<defs>
			<rect id="SVGID_1475_" x="696.4" y="-236.9" width="21" height="31"/>
		</defs>
		<clipPath id="SVGID_182_">
			<use xlink:href="#SVGID_1475_"  overflow="visible"/>
		</clipPath>
		<g clip-path="url(#SVGID_182_)">
			<defs>
				<rect id="SVGID_1477_" x="-197.6" y="-785.9" width="1121" height="1030"/>
			</defs>
			<clipPath id="SVGID_184_">
				<use xlink:href="#SVGID_1477_"  overflow="visible"/>
			</clipPath>
		</g>
	</g>
</g>
<g>
	<defs>
		<rect id="SVGID_1479_" x="696.4" y="-236.9" width="21" height="31"/>
	</defs>
	<clipPath id="SVGID_186_">
		<use xlink:href="#SVGID_1479_"  overflow="visible"/>
	</clipPath>
	<g clip-path="url(#SVGID_186_)">
		<defs>
			<rect id="SVGID_1481_" x="-197.6" y="-785.9" width="1121" height="1030"/>
		</defs>
		<clipPath id="SVGID_188_">
			<use xlink:href="#SVGID_1481_"  overflow="visible"/>
		</clipPath>
	</g>
</g>
<g>
	<defs>
		<path id="SVGID_1483_" d="M697.4-266.4h-1.5v1.5v19v1.5h1.5h19h1.5v-1.5v-19v-1.5h-1.5H697.4z M697.4-263.4h19l-1.5-1.5v19
			l1.5-1.5h-19l1.5,1.5v-19L697.4-263.4z M675.9-286.4h62v62h-62V-286.4z"/>
	</defs>
	<clipPath id="SVGID_190_">
		<use xlink:href="#SVGID_1483_"  overflow="visible"/>
	</clipPath>
	<g clip-path="url(#SVGID_190_)">
		<defs>
			<rect id="SVGID_1485_" x="697.4" y="-264.9" width="19" height="19"/>
		</defs>
		<clipPath id="SVGID_192_">
			<use xlink:href="#SVGID_1485_"  overflow="visible"/>
		</clipPath>
		<g clip-path="url(#SVGID_192_)">
			<defs>
				<rect id="SVGID_1487_" x="-197.6" y="-785.9" width="1121" height="1030"/>
			</defs>
			<clipPath id="SVGID_194_">
				<use xlink:href="#SVGID_1487_"  overflow="visible"/>
			</clipPath>
		</g>
	</g>
</g>
<g>
	<defs>
		<rect id="SVGID_1489_" x="697.4" y="-264.9" width="19" height="19"/>
	</defs>
	<clipPath id="SVGID_196_">
		<use xlink:href="#SVGID_1489_"  overflow="visible"/>
	</clipPath>
	<g clip-path="url(#SVGID_196_)">
		<defs>
			<rect id="SVGID_1491_" x="-197.6" y="-785.9" width="1121" height="1030"/>
		</defs>
		<clipPath id="SVGID_198_">
			<use xlink:href="#SVGID_1491_"  overflow="visible"/>
		</clipPath>
	</g>
</g>
<g>
	<defs>
		<path id="SVGID_1493_" d="M702.4-261.4h-1.5v1.5v9v1.5h1.5h9h1.5v-1.5v-9v-1.5h-1.5H702.4z M702.4-258.4h9l-1.5-1.5v9l1.5-1.5h-9
			l1.5,1.5v-9L702.4-258.4z M680.9-281.4h52v52h-52V-281.4z"/>
	</defs>
	<clipPath id="SVGID_200_">
		<use xlink:href="#SVGID_1493_"  overflow="visible"/>
	</clipPath>
	<g clip-path="url(#SVGID_200_)">
		<defs>
			<rect id="SVGID_1495_" x="702.4" y="-259.9" width="9" height="9"/>
		</defs>
		<clipPath id="SVGID_202_">
			<use xlink:href="#SVGID_1495_"  overflow="visible"/>
		</clipPath>
		<g clip-path="url(#SVGID_202_)">
			<defs>
				<rect id="SVGID_1497_" x="-197.6" y="-785.9" width="1121" height="1030"/>
			</defs>
			<clipPath id="SVGID_204_">
				<use xlink:href="#SVGID_1497_"  overflow="visible"/>
			</clipPath>
		</g>
	</g>
</g>
<g>
	<defs>
		<rect id="SVGID_1499_" x="702.4" y="-259.9" width="9" height="9"/>
	</defs>
	<clipPath id="SVGID_206_">
		<use xlink:href="#SVGID_1499_"  overflow="visible"/>
	</clipPath>
	<g clip-path="url(#SVGID_206_)">
		<defs>
			<rect id="SVGID_1501_" x="-197.6" y="-785.9" width="1121" height="1030"/>
		</defs>
		<clipPath id="SVGID_208_">
			<use xlink:href="#SVGID_1501_"  overflow="visible"/>
		</clipPath>
	</g>
</g>
<g>
	<defs>
		<path id="SVGID_1503_" d="M727.4-266.4h-1.5v1.5v19v1.5h1.5h19h1.5v-1.5v-19v-1.5h-1.5H727.4z M727.4-263.4h19l-1.5-1.5v19
			l1.5-1.5h-19l1.5,1.5v-19L727.4-263.4z M705.9-286.4h62v62h-62V-286.4z"/>
	</defs>
	<clipPath id="SVGID_210_">
		<use xlink:href="#SVGID_1503_"  overflow="visible"/>
	</clipPath>
	<g clip-path="url(#SVGID_210_)">
		<defs>
			<rect id="SVGID_1505_" x="727.4" y="-264.9" width="19" height="19"/>
		</defs>
		<clipPath id="SVGID_212_">
			<use xlink:href="#SVGID_1505_"  overflow="visible"/>
		</clipPath>
		<g clip-path="url(#SVGID_212_)">
			<defs>
				<rect id="SVGID_1507_" x="-197.6" y="-785.9" width="1121" height="1030"/>
			</defs>
			<clipPath id="SVGID_214_">
				<use xlink:href="#SVGID_1507_"  overflow="visible"/>
			</clipPath>
		</g>
	</g>
</g>
<g>
	<defs>
		<rect id="SVGID_1509_" x="727.4" y="-264.9" width="19" height="19"/>
	</defs>
	<clipPath id="SVGID_216_">
		<use xlink:href="#SVGID_1509_"  overflow="visible"/>
	</clipPath>
	<g clip-path="url(#SVGID_216_)">
		<defs>
			<rect id="SVGID_1511_" x="-197.6" y="-785.9" width="1121" height="1030"/>
		</defs>
		<clipPath id="SVGID_218_">
			<use xlink:href="#SVGID_1511_"  overflow="visible"/>
		</clipPath>
	</g>
</g>
<g>
	<defs>
		<path id="SVGID_1513_" d="M756.4-266.4h-1.5v1.5v19v1.5h1.5h19h1.5v-1.5v-19v-1.5h-1.5H756.4z M756.4-263.4h19l-1.5-1.5v19
			l1.5-1.5h-19l1.5,1.5v-19L756.4-263.4z M734.9-286.4h62v62h-62V-286.4z"/>
	</defs>
	<clipPath id="SVGID_220_">
		<use xlink:href="#SVGID_1513_"  overflow="visible"/>
	</clipPath>
	<g clip-path="url(#SVGID_220_)">
		<defs>
			<rect id="SVGID_1515_" x="756.4" y="-264.9" width="19" height="19"/>
		</defs>
		<clipPath id="SVGID_222_">
			<use xlink:href="#SVGID_1515_"  overflow="visible"/>
		</clipPath>
		<g clip-path="url(#SVGID_222_)">
			<defs>
				<rect id="SVGID_1517_" x="-197.6" y="-785.9" width="1121" height="1030"/>
			</defs>
			<clipPath id="SVGID_224_">
				<use xlink:href="#SVGID_1517_"  overflow="visible"/>
			</clipPath>
		</g>
	</g>
</g>
<g>
	<defs>
		<rect id="SVGID_1519_" x="756.4" y="-264.9" width="19" height="19"/>
	</defs>
	<clipPath id="SVGID_226_">
		<use xlink:href="#SVGID_1519_"  overflow="visible"/>
	</clipPath>
	<g clip-path="url(#SVGID_226_)">
		<defs>
			<rect id="SVGID_1521_" x="-197.6" y="-785.9" width="1121" height="1030"/>
		</defs>
		<clipPath id="SVGID_228_">
			<use xlink:href="#SVGID_1521_"  overflow="visible"/>
		</clipPath>
	</g>
</g>
<g>
	<defs>
		<path id="SVGID_1523_" d="M727.4-238.4h-1.5v1.5v19v1.5h1.5h19h1.5v-1.5v-19v-1.5h-1.5H727.4z M727.4-235.4h19l-1.5-1.5v19
			l1.5-1.5h-19l1.5,1.5v-19L727.4-235.4z M705.9-258.4h62v62h-62V-258.4z"/>
	</defs>
	<clipPath id="SVGID_230_">
		<use xlink:href="#SVGID_1523_"  overflow="visible"/>
	</clipPath>
	<g clip-path="url(#SVGID_230_)">
		<defs>
			<rect id="SVGID_1525_" x="727.4" y="-236.9" width="19" height="19"/>
		</defs>
		<clipPath id="SVGID_232_">
			<use xlink:href="#SVGID_1525_"  overflow="visible"/>
		</clipPath>
		<g clip-path="url(#SVGID_232_)">
			<defs>
				<rect id="SVGID_1527_" x="-197.6" y="-785.9" width="1121" height="1030"/>
			</defs>
			<clipPath id="SVGID_234_">
				<use xlink:href="#SVGID_1527_"  overflow="visible"/>
			</clipPath>
		</g>
	</g>
</g>
<g>
	<defs>
		<rect id="SVGID_1529_" x="727.4" y="-236.9" width="19" height="19"/>
	</defs>
	<clipPath id="SVGID_236_">
		<use xlink:href="#SVGID_1529_"  overflow="visible"/>
	</clipPath>
	<g clip-path="url(#SVGID_236_)">
		<defs>
			<rect id="SVGID_1531_" x="-197.6" y="-785.9" width="1121" height="1030"/>
		</defs>
		<clipPath id="SVGID_238_">
			<use xlink:href="#SVGID_1531_"  overflow="visible"/>
		</clipPath>
	</g>
</g>
<g>
	<defs>
		<path id="SVGID_1533_" d="M756.4-238.4h-1.5v1.5v19v1.5h1.5h19h1.5v-1.5v-19v-1.5h-1.5H756.4z M756.4-235.4h19l-1.5-1.5v19
			l1.5-1.5h-19l1.5,1.5v-19L756.4-235.4z M734.9-258.4h62v62h-62V-258.4z"/>
	</defs>
	<clipPath id="SVGID_240_">
		<use xlink:href="#SVGID_1533_"  overflow="visible"/>
	</clipPath>
	<g clip-path="url(#SVGID_240_)">
		<defs>
			<rect id="SVGID_1535_" x="756.4" y="-236.9" width="19" height="19"/>
		</defs>
		<clipPath id="SVGID_242_">
			<use xlink:href="#SVGID_1535_"  overflow="visible"/>
		</clipPath>
		<g clip-path="url(#SVGID_242_)">
			<defs>
				<rect id="SVGID_1537_" x="-197.6" y="-785.9" width="1121" height="1030"/>
			</defs>
			<clipPath id="SVGID_244_">
				<use xlink:href="#SVGID_1537_"  overflow="visible"/>
			</clipPath>
		</g>
	</g>
</g>
<g>
	<defs>
		<rect id="SVGID_1539_" x="756.4" y="-236.9" width="19" height="19"/>
	</defs>
	<clipPath id="SVGID_246_">
		<use xlink:href="#SVGID_1539_"  overflow="visible"/>
	</clipPath>
	<g clip-path="url(#SVGID_246_)">
		<defs>
			<rect id="SVGID_1541_" x="-197.6" y="-785.9" width="1121" height="1030"/>
		</defs>
		<clipPath id="SVGID_248_">
			<use xlink:href="#SVGID_1541_"  overflow="visible"/>
		</clipPath>
	</g>
</g>
<g>
	<defs>
		<path id="SVGID_1543_" d="M732.4-261.4h-1.5v1.5v9v1.5h1.5h9h1.5v-1.5v-9v-1.5h-1.5H732.4z M732.4-258.4h9l-1.5-1.5v9l1.5-1.5h-9
			l1.5,1.5v-9L732.4-258.4z M710.9-281.4h52v52h-52V-281.4z"/>
	</defs>
	<clipPath id="SVGID_250_">
		<use xlink:href="#SVGID_1543_"  overflow="visible"/>
	</clipPath>
	<g clip-path="url(#SVGID_250_)">
		<defs>
			<rect id="SVGID_1545_" x="732.4" y="-259.9" width="9" height="9"/>
		</defs>
		<clipPath id="SVGID_252_">
			<use xlink:href="#SVGID_1545_"  overflow="visible"/>
		</clipPath>
		<g clip-path="url(#SVGID_252_)">
			<defs>
				<rect id="SVGID_1547_" x="-197.6" y="-785.9" width="1121" height="1030"/>
			</defs>
			<clipPath id="SVGID_254_">
				<use xlink:href="#SVGID_1547_"  overflow="visible"/>
			</clipPath>
		</g>
	</g>
</g>
<g>
	<defs>
		<rect id="SVGID_1549_" x="732.4" y="-259.9" width="9" height="9"/>
	</defs>
	<clipPath id="SVGID_256_">
		<use xlink:href="#SVGID_1549_"  overflow="visible"/>
	</clipPath>
	<g clip-path="url(#SVGID_256_)">
		<defs>
			<rect id="SVGID_1551_" x="-197.6" y="-785.9" width="1121" height="1030"/>
		</defs>
		<clipPath id="SVGID_258_">
			<use xlink:href="#SVGID_1551_"  overflow="visible"/>
		</clipPath>
	</g>
</g>
<g>
	<defs>
		<path id="SVGID_1553_" d="M761.4-261.4h-1.5v1.5v9v1.5h1.5h9h1.5v-1.5v-9v-1.5h-1.5H761.4z M761.4-258.4h9l-1.5-1.5v9l1.5-1.5h-9
			l1.5,1.5v-9L761.4-258.4z M739.9-281.4h52v52h-52V-281.4z"/>
	</defs>
	<clipPath id="SVGID_260_">
		<use xlink:href="#SVGID_1553_"  overflow="visible"/>
	</clipPath>
	<g clip-path="url(#SVGID_260_)">
		<defs>
			<rect id="SVGID_1555_" x="761.4" y="-259.9" width="9" height="9"/>
		</defs>
		<clipPath id="SVGID_262_">
			<use xlink:href="#SVGID_1555_"  overflow="visible"/>
		</clipPath>
		<g clip-path="url(#SVGID_262_)">
			<defs>
				<rect id="SVGID_1557_" x="-197.6" y="-785.9" width="1121" height="1030"/>
			</defs>
			<clipPath id="SVGID_264_">
				<use xlink:href="#SVGID_1557_"  overflow="visible"/>
			</clipPath>
		</g>
	</g>
</g>
<g>
	<defs>
		<rect id="SVGID_1559_" x="761.4" y="-259.9" width="9" height="9"/>
	</defs>
	<clipPath id="SVGID_266_">
		<use xlink:href="#SVGID_1559_"  overflow="visible"/>
	</clipPath>
	<g clip-path="url(#SVGID_266_)">
		<defs>
			<rect id="SVGID_1561_" x="-197.6" y="-785.9" width="1121" height="1030"/>
		</defs>
		<clipPath id="SVGID_268_">
			<use xlink:href="#SVGID_1561_"  overflow="visible"/>
		</clipPath>
	</g>
</g>
<g>
	<defs>
		<path id="SVGID_1563_" d="M732.4-233.4h-1.5v1.5v9v1.5h1.5h9h1.5v-1.5v-9v-1.5h-1.5H732.4z M732.4-230.4h9l-1.5-1.5v9l1.5-1.5h-9
			l1.5,1.5v-9L732.4-230.4z M710.9-253.4h52v52h-52V-253.4z"/>
	</defs>
	<clipPath id="SVGID_270_">
		<use xlink:href="#SVGID_1563_"  overflow="visible"/>
	</clipPath>
	<g clip-path="url(#SVGID_270_)">
		<defs>
			<rect id="SVGID_1565_" x="732.4" y="-231.9" width="9" height="9"/>
		</defs>
		<clipPath id="SVGID_272_">
			<use xlink:href="#SVGID_1565_"  overflow="visible"/>
		</clipPath>
		<g clip-path="url(#SVGID_272_)">
			<defs>
				<rect id="SVGID_1567_" x="-197.6" y="-785.9" width="1121" height="1030"/>
			</defs>
			<clipPath id="SVGID_274_">
				<use xlink:href="#SVGID_1567_"  overflow="visible"/>
			</clipPath>
		</g>
	</g>
</g>
<g>
	<defs>
		<rect id="SVGID_1569_" x="732.4" y="-231.9" width="9" height="9"/>
	</defs>
	<clipPath id="SVGID_276_">
		<use xlink:href="#SVGID_1569_"  overflow="visible"/>
	</clipPath>
	<g clip-path="url(#SVGID_276_)">
		<defs>
			<rect id="SVGID_1571_" x="-197.6" y="-785.9" width="1121" height="1030"/>
		</defs>
		<clipPath id="SVGID_278_">
			<use xlink:href="#SVGID_1571_"  overflow="visible"/>
		</clipPath>
	</g>
</g>
<g>
	<defs>
		<path id="SVGID_1573_" d="M761.4-233.4h-1.5v1.5v9v1.5h1.5h9h1.5v-1.5v-9v-1.5h-1.5H761.4z M761.4-230.4h9l-1.5-1.5v9l1.5-1.5h-9
			l1.5,1.5v-9L761.4-230.4z M739.9-253.4h52v52h-52V-253.4z"/>
	</defs>
	<clipPath id="SVGID_280_">
		<use xlink:href="#SVGID_1573_"  overflow="visible"/>
	</clipPath>
	<g clip-path="url(#SVGID_280_)">
		<defs>
			<rect id="SVGID_1575_" x="761.4" y="-231.9" width="9" height="9"/>
		</defs>
		<clipPath id="SVGID_282_">
			<use xlink:href="#SVGID_1575_"  overflow="visible"/>
		</clipPath>
		<g clip-path="url(#SVGID_282_)">
			<defs>
				<rect id="SVGID_1577_" x="-197.6" y="-785.9" width="1121" height="1030"/>
			</defs>
			<clipPath id="SVGID_284_">
				<use xlink:href="#SVGID_1577_"  overflow="visible"/>
			</clipPath>
		</g>
	</g>
</g>
<g>
	<defs>
		<rect id="SVGID_1579_" x="761.4" y="-231.9" width="9" height="9"/>
	</defs>
	<clipPath id="SVGID_286_">
		<use xlink:href="#SVGID_1579_"  overflow="visible"/>
	</clipPath>
	<g clip-path="url(#SVGID_286_)">
		<defs>
			<rect id="SVGID_1581_" x="-197.6" y="-785.9" width="1121" height="1030"/>
		</defs>
		<clipPath id="SVGID_288_">
			<use xlink:href="#SVGID_1581_"  overflow="visible"/>
		</clipPath>
	</g>
</g>
</svg>
